# xmcd
#
# Track frame offsets:
#	150
#	14784
#	31508
#	48479
#	67470
#	80909
#	95831
#	111366
#	128388
#	144260
#	159934
#
# Disc length: 2326 seconds
#
# Revision: 1
# Processed by: cddbd v1.5.2PL0 Copyright (c) Steve Scherf et al.
# Submitted via: audiograbber 1.83.01
#
DISCID=9609140b
DTITLE=The Black Keys - El Camino
DYEAR=2011
DGENRE=Alternative and Indie
TTITLE0=Lonely Boy
TTITLE1=Dead And Gone
TTITLE2=Gold On The Ceiling
TTITLE3=Little Black Submarines
TTITLE4=Money Maker
TTITLE5=Run Right Back
TTITLE6=Sister
TTITLE7=Hell Of A Season
TTITLE8=Stop Stop
TTITLE9=Nova Baby
TTITLE10=Mind Eraser
EXTD=
EXTT0=
EXTT1=
EXTT2=
EXTT3=
EXTT4=
EXTT5=
EXTT6=
EXTT7=
EXTT8=
EXTT9=
EXTT10=
PLAYORDER=
